<svg xmlns="http://www.w3.org/2000/svg" width="4211.781" height="2944.561" viewBox="0 0 4211.781 2944.561">
  <defs>
    <style>
      .cls-1 {
        fill: #359e16;
        stroke: #359e16;
        stroke-width: 20px;
        fill-rule: evenodd;
      }
    </style>
  </defs>
  <path id="Preenchimento_de_Cor_3" data-name="Preenchimento de Cor 3" class="cls-1" d="M1117.04,788.726c38-.327,63.83,24.811,86.46,41.35,56.01,40.937,110.35,88.562,152.87,142.843,7.25,9.265,71.88,88.9,37.59,96.481q-101.49-60.135-202.99-120.288-5.01,3.132-10.03,6.265c-1.68,95.553,41.49,165.2,102.75,197.973,119.13-57.35,194.93-93.95,377.16-93.97,84.57-.01,147.24-8.04,189.21,36.33-0.84,1.26-1.67,2.51-2.51,3.76-303.5-2.81-588.84,90.86-650.32,333.31-9.38,37-14.99,100.12-7.52,146.6q3.765,51.36,7.52,102.75c23.17,131.73,18.92,318.12-98.99,337.06-0.83-1.26-1.67-2.51-2.5-3.76,14.17-39.53,42.06-64.45,51.37-107.76,10.29-47.8-5.03-99.66-16.29-132.82-23.96-70.58-66.38-197.63-48.87-296.97,11.5-65.19,29.9-115.08,56.39-164.14,6.32-11.71,37.45-56.02,33.83-67.66-7.8-18.01-23.77-31.56-35.08-46.36-21.83-28.57-44.63-58.45-61.4-91.47C1030.32,1018.88,1059.15,839.683,1117.04,788.726ZM2933.92,1086.94c64.84,3,74.51,123.74,47.62,181.69-30.39,65.48-95.8,129.14-165.4,155.38q-50.745,17.535-101.5,35.08c-13.57,6.97-62.56,48.35-43.85,73.93q49.485-18.165,98.99-36.34c113.12-29.05,255.31,104.05,308.24,156.63,20.67,20.54,84.24,70.92,90.22,98.99-96.68,110.29-202.92,270.75-368.39,308.24-102.01,23.11-155.21-78.24-185.45-137.83-5.83-11.5-35.63-71.48-23.81-87.72,45.15,31.34,75,82.13,132.82,100.25,124.03,38.86,209.79-72.44,253.11-131.57,13.63-18.6,38.45-43.19,42.61-68.92-50.25-39.93-162.9-152.75-261.88-134.07-50.46,9.52-93.23,41.78-131.57,66.41-11.88,7.63-37.2,30.13-52.63,23.81-3.94-27.25.76-67.91-7.52-98.99-40.82-153.25-126.61-278.35-248.1-352.1q-77.67-41.34-155.37-82.7l-75.18-37.59c0.42-1.67.83-3.34,1.25-5.01,143.14-1.08,249.67,23.47,329.55,83.95,51.4,38.92,91.71,89.76,145.35,127.81q11.895,8.775,23.8,17.54,20.055-3.75,40.1-7.52,33.21-4.38,66.41-8.77c38.33-13.6,109.3-61.57,132.82-91.47,11.36-14.44,28.27-53.55,15.04-82.7-20.06-.09-46.81-3.07-61.4,3.76q-15.03,11.91-30.07,23.81l-290.7,16.29c-12.96-5.43-20.64-26.39-22.56-42.6l2.51-2.51Q2686.42,1119.52,2933.92,1086.94Zm-2424.6,121.55c186.32-2.85,410.58,44.44,472.39,159.13-0.418.83-.836,1.67-1.253,2.51-78.26.91-137.99-31.46-204.243-46.37-70-15.75-179.679-11.9-250.6,0-72.381,12.15-118.616-1.66-161.64,40.1,66.049,141.02,298.132,248.18,452.341,306.99a1041.178,1041.178,0,0,0,142.844,42.6c11.928,2.66,74.742,7.18,78.942,12.53,2.94,6.31,1.16,19.07-1.25,23.81-93.672.92-214.254,8.2-301.983-11.28C558.622,1699.39,387.13,1587,291.3,1467.86c-35.5-44.13-136.905-137.19-136.579-206.75,62.664-32.37,197.343-30.08,278.171-45.11Q471.1,1212.25,509.323,1208.49ZM2249.77,1614.46c61.19-1.45,81.86,11.13,104,47.62,4.83,7.96,12.72,17,10.03,28.82q-20.685-9.4-41.35-18.8c-57.51-17.81-99.73,10.35-116.53,46.36-5.2,11.14-15.94,31.19-10.03,45.11,45.78-.59,112.04-7.05,140.34,11.28,21.27,70.88-11.6,68.92-76.43,68.92-25.19-.01-50.45,3.39-70.17-5.02-11.08-4.72-27.47-23.64-43.86-20.04q-68.28,21.285-136.58,42.6c-6.88-4.89-6.72-23.33-2.5-31.33,71.91-21.79,103.31-107.27,145.35-160.38,14.92-18.87,39.52-38.74,63.9-47.62Q2232.86,1618.23,2249.77,1614.46Zm1323.19,338.32c58.39,6.5,123.69-3.33,176.68,7.52,200.48,41.02,375.8,131.45,466.12,283.18,37,62.14,66.82,166.23,37.59,258.12-31.16,97.99-95.69,158.2-152.86,229.3-22.66,28.18-69.43,58.26-73.93,101.5,1.25,0.41,2.5.83,3.76,1.25l77.68,10.02c77.88,19.21,138.43,52.3,191.72,95.23,17.32,13.96,44.1,37.68,46.36,65.16-7.37,5.21-61.66-16.99-73.93-21.3l-223.04-80.2c-0.31-4.5.88-10.32-2.5-13.78q-145.335-17.535-290.71-35.08v-5.02c120.9-99.75,283.49-159.78,367.14-296.96,51.3-84.13,46.11-201.36-5.01-279.42-84.68-129.3-225.39-204.31-407.23-236.82h-91.47c-146.57-.02-254.07,23.56-354.61,67.66-37.8,16.58-95.91,40.24-107.76,81.45-7.95,27.64,2.85,66.64,7.52,86.45,17.02,72.26,51.78,129.18,58.89,205.5,4.55,48.83.59,101.76-22.55,124.05-3.59,3.45-21.67,19.1-30.08,15.03q-19.41-88.95-38.84-177.92c-14.08-57.03-37.8-106.38-58.89-155.38-15.82-36.73-28.9-74.1-51.38-104-27.03-35.96-86.57-59.75-93.97-112.77,0.83-1.25,1.67-2.51,2.5-3.76,55.11,0.13,80.88,8.17,114.03,27.57q22.545,13.155,45.11,26.31,31.32-18.165,62.65-36.34c49.33-25.19,103.3-47.3,156.63-67.66,58.49-22.34,121.15-37.5,186.7-51.37Q3534.115,1956.535,3572.96,1952.78ZM935.351,2237.21c68.639,0.07,82.079,42.95,135.329,53.88,41.04,8.43,92.02-.58,107.76-20.05,8.12-10.04,17.96-28.54,31.32-32.57,31.19-9.42,65.78,18.03,82.7,27.56,53.3,30.03,147.14,103.27,175.43,155.38l-1.26,5.01c-90.29.29-201.84-113.13-248.1-1.26-24.38,58.96,52.23,86.04,92.73,93.98,13.29,2.61,42.27-2.25,52.62,5.01q-22.545,47.61-45.1,95.23c0.41,1.26.83,2.51,1.25,3.76,29.92-3.05,83.45,44.91,106.51,60.15v5.01c-2.79,3.12-3.56,5.31-7.52,7.52-14.33,5.44-100.99-30.68-119.04-37.59-38.02-14.57-78.36-31.2-121.54-40.1h-48.87c-74.38,0-115.16,15.22-170.412,32.58-27.579,8.66-65.532.59-78.94-21.3-9.42-15.39.064-56.89,5.012-72.68,14.614-46.63,31.324-77.11,31.326-139.08v-32.58c-10.092-35.2-55.2-32.92-38.844-105.25C885.4,2245.81,904.368,2248.84,935.351,2237.21ZM2398.88,2486.56c15.94,6.23,22.09,25.54,30.07,40.1,47.3,86.29,5.86,199.8-35.08,261.88-58.75,89.09-157.01,185.42-239.33,251.86l-93.97,95.23c-50.95,40.96-108.96,82.44-149.11,134.07-43.32,55.69-72.34,133.06-102.75,200.48-13.15,29.15-23.71,72.82-47.62,91.47-0.83-.42-1.67-0.83-2.5-1.25-2.03-178.61,18.26-330.97,95.23-429.79,56.28-72.25,146.37-106.93,225.54-156.62,61.01-38.3,142.55-111.26,186.7-166.66,21.83-27.38,44.02-59.05,57.64-93.97l21.3-60.15q17.55-32.565,35.09-65.15C2389.79,2558.41,2381.3,2509.39,2398.88,2486.56ZM1020.56,2685.79c158.76-2.96,266.13,48.04,388.43,78.94,11.97,3.03,122.97,17.85,124.05,20.05q-48.855,26.94-97.73,53.88c-0.48,20.03-5.04,37.79,0,56.39,10.76,39.72,38.35,70.71,58.89,101.49,34.29,51.39,68.41,103.53,96.48,160.39,23.62,47.84,48.8,174.22,28.82,250.6-14.58,55.74-33.12,105.51-48.87,159.13q-6.885,35.715-13.78,71.42c-2.68,15.25,1.75,33.27-3.76,45.11h-3.76c-67.19-107.81,4.43-307.59-28.82-443.56-28.79-117.76-138.33-195.46-189.2-295.72-15.4-30.33-12.92-66.67-21.31-106.5-29.01-18.48-73.16-19.76-109.01-31.33-72.2-23.3-151.83-51.77-191.71-107.76,0.42-.83.83-1.67,1.25-2.5C1013.1,2690.22,1015.96,2689.16,1020.56,2685.79Zm1467.29,342.08c16.42,8.79,22.52,98.52,15.03,129.06-4.54,18.51-13.86,37.41-23.81,51.37-81.94,115-257.07,125.94-335.81,259.37-30.12,51.05-42.52,119.78-65.15,177.93-7.16,18.4-17.14,57.1-35.09,63.91q-8.145-55.755-16.29-111.52,1.89-13.785,3.76-27.57c7.77-48.19,5.2-71.13,20.05-109.01,29.49-75.2,75.6-137.12,140.34-176.68,36.3-22.18,80.66-33.38,115.28-56.38C2380.27,3179.1,2439.99,3103.25,2487.85,3027.87Z" transform="translate(-144.719 -778.719)"/>
</svg>
